<svg id="visual" viewBox="0 0 900 600" width="900" height="600" xmlns="http://www.w3.org/2000/svg" xmlns:xlink="http://www.w3.org/1999/xlink" version="1.1"><path d="M0 523L25 527.8C50 532.7 100 542.3 150 533.8C200 525.3 250 498.7 300 496C350 493.3 400 514.7 450 523.3C500 532 550 528 600 518.7C650 509.3 700 494.7 750 494C800 493.3 850 506.7 875 513.3L900 520L900 601L875 601C850 601 800 601 750 601C700 601 650 601 600 601C550 601 500 601 450 601C400 601 350 601 300 601C250 601 200 601 150 601C100 601 50 601 25 601L0 601Z" fill="#f4f4f4"></path></svg>